<svg width="16" height="16" viewBox="0 0 16 16" fill="none" xmlns="http://www.w3.org/2000/svg">
<path d="M10.0002 14.6667V12C10.0929 11.1649 9.85347 10.3268 9.33352 9.66671C11.3335 9.66671 13.3335 8.33337 13.3335 6.00004C13.3869 5.16671 13.1535 4.34671 12.6669 3.66671C12.8535 2.90004 12.8535 2.10004 12.6669 1.33337C12.6669 1.33337 12.0002 1.33337 10.6669 2.33337C8.90685 2.00004 7.09352 2.00004 5.33352 2.33337C4.00019 1.33337 3.33352 1.33337 3.33352 1.33337C3.13352 2.10004 3.13352 2.90004 3.33352 3.66671C2.8481 4.34396 2.6125 5.16857 2.66685 6.00004C2.66685 8.33337 4.66685 9.66671 6.66685 9.66671C6.40685 9.99337 6.21352 10.3667 6.10019 10.7667C5.98685 11.1667 5.95352 11.5867 6.00019 12V14.6667" stroke="#EEEFEF" stroke-width="1.5" stroke-linecap="round" stroke-linejoin="round"/>
<path d="M6.00016 12C2.9935 13.3333 2.66683 10.6666 1.3335 10.6666" stroke="#EEEFEF" stroke-width="1.5" stroke-linecap="round" stroke-linejoin="round"/>
</svg>
