<svg width="16" height="16" viewBox="0 0 16 16" fill="none" xmlns="http://www.w3.org/2000/svg">
<path d="M9.99994 14.6667V12C10.0927 11.1649 9.85323 10.3268 9.33328 9.66671C11.3333 9.66671 13.3333 8.33337 13.3333 6.00004C13.3866 5.16671 13.1533 4.34671 12.6666 3.66671C12.8533 2.90004 12.8533 2.10004 12.6666 1.33337C12.6666 1.33337 11.9999 1.33337 10.6666 2.33337C8.90661 2.00004 7.09328 2.00004 5.33328 2.33337C3.99994 1.33337 3.33328 1.33337 3.33328 1.33337C3.13328 2.10004 3.13328 2.90004 3.33328 3.66671C2.84786 4.34396 2.61226 5.16857 2.66661 6.00004C2.66661 8.33337 4.66661 9.66671 6.66661 9.66671C6.40661 9.99337 6.21328 10.3667 6.09994 10.7667C5.98661 11.1667 5.95328 11.5867 5.99994 12V14.6667" stroke="#222428" stroke-width="1.5" stroke-linecap="round" stroke-linejoin="round"/>
<path d="M5.99992 12C2.99325 13.3333 2.66659 10.6666 1.33325 10.6666" stroke="#222428" stroke-width="1.5" stroke-linecap="round" stroke-linejoin="round"/>
</svg>
