<svg width="43" height="43" viewBox="0 0 43 43" fill="none" xmlns="http://www.w3.org/2000/svg">
<g filter="url(#filter0_d_112_78)">
<rect x="4" y="4" width="35" height="35" rx="4" fill="#4D5259"/>
</g>
<g filter="url(#filter1_d_112_78)">
<circle cx="22" cy="22" r="13" fill="#6B7077"/>
</g>
<mask id="mask0_112_78" style="mask-type:alpha" maskUnits="userSpaceOnUse" x="14" y="14" width="16" height="16">
<rect x="14" y="14" width="16" height="16" fill="#D9D9D9"/>
</mask>
<g mask="url(#mask0_112_78)">
<path d="M22 28.5C21.1056 28.5 20.2636 28.3297 19.4742 27.989C18.6848 27.6484 17.9954 27.1834 17.406 26.594C16.8166 26.0046 16.3516 25.3152 16.011 24.5258C15.6703 23.7364 15.5 22.8944 15.5 21.9999C15.5 21.0944 15.675 20.2472 16.025 19.4583C16.375 18.6694 16.85 17.9819 17.45 17.3958C18.05 16.8097 18.7528 16.3472 19.5583 16.0083C20.3639 15.6694 21.2211 15.5 22.1301 15.5C22.9957 15.5 23.8127 15.65 24.5809 15.95C25.3492 16.25 26.0236 16.6618 26.604 17.1855C27.1845 17.7092 27.6456 18.33 27.9874 19.048C28.3291 19.766 28.5 20.5389 28.5 21.3667C28.5 22.6111 28.1236 23.5639 27.3708 24.225C26.6181 24.8861 25.7005 25.2167 24.6181 25.2167H23.4167C23.3 25.2167 23.2153 25.2486 23.1625 25.3125C23.1097 25.3764 23.0833 25.45 23.0833 25.5333C23.0833 25.6772 23.1667 25.884 23.3333 26.1537C23.5 26.4235 23.5833 26.7222 23.5833 27.05C23.5833 27.5222 23.4472 27.8819 23.175 28.1292C22.9028 28.3764 22.5111 28.5 22 28.5ZM18.3833 22.6167C18.6578 22.6167 18.8847 22.5269 19.0642 22.3475C19.2436 22.1681 19.3333 21.9411 19.3333 21.6667C19.3333 21.3922 19.2436 21.1653 19.0642 20.9858C18.8847 20.8064 18.6578 20.7167 18.3833 20.7167C18.1089 20.7167 17.8819 20.8064 17.7025 20.9858C17.5231 21.1653 17.4333 21.3922 17.4333 21.6667C17.4333 21.9411 17.5231 22.1681 17.7025 22.3475C17.8819 22.5269 18.1089 22.6167 18.3833 22.6167ZM20.3667 19.9833C20.6411 19.9833 20.8681 19.8936 21.0475 19.7142C21.2269 19.5347 21.3167 19.3078 21.3167 19.0333C21.3167 18.7589 21.2269 18.5319 21.0475 18.3525C20.8681 18.1731 20.6411 18.0833 20.3667 18.0833C20.0922 18.0833 19.8653 18.1731 19.6858 18.3525C19.5064 18.5319 19.4167 18.7589 19.4167 19.0333C19.4167 19.3078 19.5064 19.5347 19.6858 19.7142C19.8653 19.8936 20.0922 19.9833 20.3667 19.9833ZM23.65 19.9833C23.9244 19.9833 24.1514 19.8936 24.3308 19.7142C24.5103 19.5347 24.6 19.3078 24.6 19.0333C24.6 18.7589 24.5103 18.5319 24.3308 18.3525C24.1514 18.1731 23.9244 18.0833 23.65 18.0833C23.3756 18.0833 23.1486 18.1731 22.9692 18.3525C22.7897 18.5319 22.7 18.7589 22.7 19.0333C22.7 19.3078 22.7897 19.5347 22.9692 19.7142C23.1486 19.8936 23.3756 19.9833 23.65 19.9833ZM25.6167 22.6167C25.8911 22.6167 26.1181 22.5269 26.2975 22.3475C26.4769 22.1681 26.5667 21.9411 26.5667 21.6667C26.5667 21.3922 26.4769 21.1653 26.2975 20.9858C26.1181 20.8064 25.8911 20.7167 25.6167 20.7167C25.3422 20.7167 25.1153 20.8064 24.9358 20.9858C24.7564 21.1653 24.6667 21.3922 24.6667 21.6667C24.6667 21.9411 24.7564 22.1681 24.9358 22.3475C25.1153 22.5269 25.3422 22.6167 25.6167 22.6167Z" fill="#EEEFEF"/>
</g>
<defs>
<filter id="filter0_d_112_78" x="0" y="0" width="43" height="43" filterUnits="userSpaceOnUse" color-interpolation-filters="sRGB">
<feFlood flood-opacity="0" result="BackgroundImageFix"/>
<feColorMatrix in="SourceAlpha" type="matrix" values="0 0 0 0 0 0 0 0 0 0 0 0 0 0 0 0 0 0 127 0" result="hardAlpha"/>
<feOffset/>
<feGaussianBlur stdDeviation="2"/>
<feComposite in2="hardAlpha" operator="out"/>
<feColorMatrix type="matrix" values="0 0 0 0 0 0 0 0 0 0 0 0 0 0 0 0 0 0 0.25 0"/>
<feBlend mode="normal" in2="BackgroundImageFix" result="effect1_dropShadow_112_78"/>
<feBlend mode="normal" in="SourceGraphic" in2="effect1_dropShadow_112_78" result="shape"/>
</filter>
<filter id="filter1_d_112_78" x="4" y="4" width="36" height="36" filterUnits="userSpaceOnUse" color-interpolation-filters="sRGB">
<feFlood flood-opacity="0" result="BackgroundImageFix"/>
<feColorMatrix in="SourceAlpha" type="matrix" values="0 0 0 0 0 0 0 0 0 0 0 0 0 0 0 0 0 0 127 0" result="hardAlpha"/>
<feMorphology radius="1" operator="dilate" in="SourceAlpha" result="effect1_dropShadow_112_78"/>
<feOffset/>
<feGaussianBlur stdDeviation="2"/>
<feComposite in2="hardAlpha" operator="out"/>
<feColorMatrix type="matrix" values="0 0 0 0 0 0 0 0 0 0 0 0 0 0 0 0 0 0 0.25 0"/>
<feBlend mode="normal" in2="BackgroundImageFix" result="effect1_dropShadow_112_78"/>
<feBlend mode="normal" in="SourceGraphic" in2="effect1_dropShadow_112_78" result="shape"/>
</filter>
</defs>
</svg>
